<svg width="256" height="254" viewBox="0 0 256 254" fill="none" xmlns="http://www.w3.org/2000/svg">
<circle cx="94" cy="94" r="94" fill="#B3B9FF" fill-opacity="0.5"/>
<circle cx="220.5" cy="220.5" r="33.5" fill="#B3B9FF" fill-opacity="0.5"/>
<path d="M182.427 129.33C154.503 133.402 142.55 154.905 139.758 166.062C139.604 166.679 139.779 167.326 140.201 167.802L154.309 183.699L151.623 217.448C151.509 218.879 152.019 220.31 153.056 221.302C179.044 246.168 214.029 232.914 231.11 221.395C232.903 220.185 233.581 217.911 232.878 215.866L221.717 183.37L242.805 158.286C243.728 157.189 243.755 155.593 242.804 154.519C232.987 143.428 209.598 125.368 182.427 129.33Z" fill="#414DD8"/>
<path d="M176.419 132.896L176.715 123.4C176.84 119.402 190.927 116.84 197.954 116.059L197.44 132.551C187.583 140.647 179.319 136.154 176.419 132.896Z" fill="#E7E8FA"/>
<path d="M197.83 120.057C196.367 124.18 189.397 133.8 176.575 127.898C176.574 111.89 190.802 120.838 197.83 120.057Z" fill="#C2C7F2"/>
<ellipse cx="223.641" cy="86.7773" rx="12.8804" ry="8.37223" transform="rotate(-62.6862 223.641 86.7773)" fill="#9EA5EB"/>
<ellipse cx="179.477" cy="82.9671" rx="41" ry="42.5" transform="rotate(1.78594 179.477 82.9671)" fill="#E7E8FA"/>
<path d="M167 109.041C170.659 111.952 179.644 115.79 186.317 107.855" stroke="#414DD8" stroke-linecap="round"/>
<ellipse rx="2.76471" ry="4.14706" transform="matrix(-0.999514 -0.0311655 -0.0311655 0.999514 186.893 91.2308)" fill="#414DD8"/>
<ellipse rx="2.76471" ry="4.14706" transform="matrix(-0.999514 -0.0311655 -0.0311655 0.999514 161.893 91.2308)" fill="#414DD8"/>
<path fill-rule="evenodd" clip-rule="evenodd" d="M232.43 87.2907C232.098 88.3974 231.649 89.516 231.079 90.6186C227.815 96.9391 221.838 100.343 217.73 98.2212C216.86 97.7717 216.143 97.1102 215.585 96.2866C215.917 95.1799 216.366 94.0613 216.935 92.9587C220.2 86.6382 226.176 83.2344 230.285 85.3561C231.155 85.8056 231.872 86.4671 232.43 87.2907Z" fill="#E7E8FA"/>
<path d="M178.792 100.59C178.979 104.121 177.235 106.283 174.948 106.404C172.66 106.525 170.697 104.561 170.509 101.03C170.322 97.4986 171.854 91.341 174.141 91.2195C176.428 91.0981 178.604 97.0588 178.792 100.59Z" fill="#9EA5EB"/>
<path fill-rule="evenodd" clip-rule="evenodd" d="M227.627 77.8015C227.669 77.1934 227.699 76.582 227.718 75.9676C228.545 49.4708 207.734 27.3212 181.238 26.495C154.741 25.6688 132.591 46.4789 131.765 72.9757C131.569 79.2623 132.591 85.3041 134.618 90.8745C134.654 90.7497 134.691 90.625 134.728 90.5006L134.718 90.5763C156.819 87.6637 169.236 69.1416 172.682 60.2447L175.108 75.1939C175.344 76.651 177.017 77.3395 178.089 76.3248C184.281 70.4654 186.133 62.0261 186.253 58.1667C190.73 64.3092 202.29 76.4754 212.71 75.9999L216.694 92.6321C220.005 89.1481 225.304 81.9066 225.87 75.4177C226.48 76.1952 227.066 76.9901 227.627 77.8015Z" fill="#414DD8"/>
<path d="M173.271 169.319C172.603 167.347 173.993 165.279 176.072 165.154L181.065 164.852L184.494 164.59C186.474 164.439 188.166 165.999 188.176 167.985V167.985C188.185 169.874 186.661 171.414 184.771 171.423L176.278 171.464C174.918 171.471 173.707 170.607 173.271 169.319V169.319Z" fill="#E7E8FA"/>
<path d="M192.86 163.829L192.86 163.829L192.852 163.831L189.495 164.576C187.84 164.943 186.844 166.637 187.328 168.262C187.788 169.808 189.415 170.688 190.962 170.227L199.102 167.802C200.198 167.475 200.963 166.483 200.999 165.34C201.056 163.588 199.431 162.262 197.726 162.669L192.86 163.829Z" fill="#E7E8FA" stroke="#414DD8"/>
<ellipse cx="212.051" cy="32.9584" rx="4" ry="8.5" transform="rotate(1.78594 212.051 32.9584)" fill="#414DD8"/>
<ellipse rx="4.26263" ry="8.52526" transform="matrix(-0.525692 -0.850675 -0.850675 0.525692 219.478 36.6534)" fill="#414DD8"/>
<circle opacity="0.5" cx="158.754" cy="105.832" r="8" transform="rotate(1.78594 158.754 105.832)" fill="#9EA5EB"/>
<circle opacity="0.5" cx="195.245" cy="103.101" r="8" transform="rotate(1.78594 195.245 103.101)" fill="#9EA5EB"/>
<path d="M154.309 206.533C136.572 210.802 141.195 186.694 146.309 172.785L157.103 174.814C153.453 171.525 154.853 164.993 155.85 162.405L184.659 171.387C179.407 171 176.944 174.703 175.104 176.778L163.729 198.307C161.697 202.153 158.538 205.515 154.309 206.533Z" fill="#E7E8FA"/>
<path d="M241.943 194.198C258.929 186.59 246.385 170.148 237.256 162.356L221.045 163.956C221.268 156.806 216.944 154.515 214.409 154.358L190.663 169.679L204.864 171.637C214.947 183.232 226.104 190.435 233.041 193.89C235.829 195.279 239.1 195.471 241.943 194.198Z" fill="#E7E8FA"/>
<path d="M231.255 171.123L238.501 163.346C238.613 159.747 228.333 157.859 223.179 157.365L221.478 163.815L231.255 171.123Z" fill="#414DD8"/>
<path d="M170.999 169.503C169.268 168.555 168.672 166.357 169.686 164.664L174.64 156.392L178.947 147.766C179.828 146 182.001 145.32 183.732 146.269V146.269C185.418 147.192 186.035 149.308 185.112 150.993L175.723 168.124C174.8 169.809 172.685 170.427 170.999 169.503V169.503Z" fill="#E7E8FA"/>
<path d="M204.248 165.377C205.755 164.102 205.899 161.83 204.567 160.373L198.06 153.258L192.116 145.667C190.899 144.113 188.634 143.881 187.127 145.157V145.157C185.66 146.399 185.478 148.595 186.72 150.062L199.343 164.97C200.585 166.437 202.781 166.619 204.248 165.377V165.377Z" fill="#E7E8FA"/>
<path d="M156.604 174.799L149.093 191.073" stroke="#414DD8" stroke-linecap="round"/>
<path d="M153.356 182.701L145.61 173.997C145.147 173.477 145.344 172.656 145.992 172.401L151.746 170.145L156.604 174.799L153.356 182.701Z" fill="#414DD8"/>
<path d="M221.478 163.815L241.516 178.947" stroke="#414DD8" stroke-linecap="round"/>
<path d="M165.131 161.665C164.449 163.438 164.198 165.157 164.323 166.492C164.45 167.861 164.946 168.66 165.577 168.902C166.208 169.144 167.11 168.883 168.122 167.951C169.108 167.043 170.073 165.598 170.754 163.825C171.435 162.052 171.686 160.333 171.562 158.998C171.434 157.629 170.938 156.83 170.308 156.588C169.677 156.346 168.774 156.607 167.762 157.539C166.776 158.447 165.812 159.892 165.131 161.665Z" fill="#E7E8FA" stroke="#414DD8"/>
<path d="M161.041 161.018C160.358 162.796 160.08 164.51 160.163 165.833C160.25 167.203 160.701 167.953 161.246 168.163C161.791 168.372 162.628 168.117 163.61 167.157C164.558 166.23 165.499 164.771 166.182 162.993C166.865 161.216 167.143 159.502 167.059 158.179C166.973 156.808 166.522 156.058 165.977 155.849C165.431 155.639 164.595 155.894 163.613 156.854C162.665 157.781 161.724 159.24 161.041 161.018Z" fill="#E7E8FA" stroke="#414DD8"/>
<path d="M156.853 160.664C156.17 162.441 155.896 164.155 155.986 165.48C156.079 166.85 156.536 167.607 157.094 167.822C157.652 168.036 158.498 167.78 159.485 166.824C160.438 165.9 161.382 164.443 162.065 162.666C162.748 160.889 163.022 159.174 162.932 157.85C162.84 156.479 162.382 155.722 161.824 155.508C161.266 155.294 160.42 155.55 159.434 156.506C158.48 157.43 157.536 158.887 156.853 160.664Z" fill="#E7E8FA" stroke="#414DD8"/>
<path d="M207.697 155.076C208.796 156.811 209.429 158.581 209.581 160.026C209.738 161.506 209.383 162.476 208.748 162.878C208.113 163.281 207.085 163.187 205.814 162.414C204.572 161.659 203.241 160.331 202.142 158.596C201.043 156.862 200.41 155.092 200.258 153.646C200.101 152.167 200.456 151.197 201.091 150.794C201.726 150.392 202.754 150.486 204.025 151.259C205.267 152.014 206.598 153.342 207.697 155.076Z" fill="#E7E8FA" stroke="#414DD8"/>
<path d="M211.885 153.524C212.986 155.263 213.647 157.021 213.84 158.445C214.04 159.916 213.725 160.826 213.172 161.177C212.618 161.527 211.661 161.423 210.416 160.615C209.211 159.832 207.902 158.484 206.801 156.746C205.699 155.007 205.039 153.248 204.845 151.825C204.646 150.354 204.961 149.443 205.514 149.093C206.067 148.742 207.025 148.846 208.27 149.655C209.474 150.437 210.783 151.785 211.885 153.524Z" fill="#E7E8FA" stroke="#414DD8"/>
<path d="M216.238 152.26C217.34 153.998 217.996 155.759 218.183 157.185C218.376 158.658 218.056 159.577 217.491 159.935C216.925 160.293 215.957 160.191 214.708 159.387C213.498 158.609 212.187 157.264 211.085 155.526C209.984 153.788 209.328 152.027 209.14 150.601C208.947 149.129 209.268 148.209 209.833 147.851C210.398 147.493 211.366 147.596 212.615 148.399C213.825 149.177 215.137 150.523 216.238 152.26Z" fill="#E7E8FA" stroke="#414DD8"/>
<path d="M112.302 139C119.102 135.8 112.802 131.333 108.802 129.5V139H112.302Z" fill="#9EA5EB"/>
<circle cx="78.8018" cy="142.5" r="33.5" fill="#E7E8FA"/>
<circle opacity="0.5" cx="96" cy="147" r="8" fill="#9EA5EB"/>
<ellipse rx="2.30045" ry="3.80979" transform="matrix(-0.958131 0.286329 0.286329 0.958131 101.415 130.691)" fill="#414DD8"/>
<path d="M33.3018 213.5C33.3018 192.789 50.0911 176 70.8018 176V176C91.5124 176 108.302 192.789 108.302 213.5V251H33.3018V213.5Z" fill="#9EA5EB"/>
<path d="M93.4431 222.716C91.7082 218.058 94.0778 212.876 98.7357 211.141V211.141C103.394 209.406 108.576 211.776 110.311 216.434L121.914 247.587L109.732 252.124C107.144 253.088 104.265 251.772 103.301 249.184L93.4431 222.716Z" fill="#E7E8FA"/>
<path d="M79.6659 209.624C76.7034 201.95 80.5231 193.327 88.1974 190.364V190.364C95.8718 187.402 104.495 191.221 107.457 198.896L115.997 221.016C116.608 222.6 115.676 224.358 114.022 224.74L107.997 226.134C104.082 227.04 100.319 228.51 96.8265 230.497L92.178 233.142C90.6959 233.986 88.8107 233.313 88.1966 231.723L79.6659 209.624Z" fill="#414DD8"/>
<path fill-rule="evenodd" clip-rule="evenodd" d="M18.0423 127.499C18.3118 103.655 37.7978 83 62.4155 83C87.2054 83 107.302 102.5 107.302 126.556L107.144 126.319C107.15 126.381 107.156 126.442 107.162 126.504C107.25 127.461 106.078 127.869 105.502 127.1L94.55 112.5C94.8901 120.833 92.7138 138.7 81.2882 143.5L65.476 150C72.9297 153.812 85.0777 166.252 77.0195 186.456C76.807 186.988 75.9936 186.778 76.0335 186.206C76.365 181.458 76.043 175.27 73.1271 174C74.9973 182.833 69.1485 198.6 30.7913 191C-7.56594 183.4 6.98804 156.833 19.0597 144.5L18.0708 128.022L18.0394 128C18.0394 127.846 18.0402 127.693 18.0418 127.54L18.0394 127.5L18.0423 127.499Z" fill="#414DD8"/>
<ellipse cx="70.8018" cy="142" rx="11.5" ry="12" fill="#E7E8FA"/>
<path opacity="0.5" fill-rule="evenodd" clip-rule="evenodd" d="M59.517 139.677C61.609 137.41 64.5475 136 67.8018 136C74.153 136 79.3018 141.373 79.3018 148C79.3018 148.795 79.2277 149.571 79.0865 150.323C76.9945 152.59 74.056 154 70.8018 154C64.4505 154 59.3018 148.627 59.3018 142C59.3018 141.205 59.3758 140.429 59.517 139.677Z" fill="#9EA5EB"/>
<path d="M104.846 147.094C106.289 147.949 109.584 148.839 111.218 145.554" stroke="#414DD8" stroke-linecap="round"/>
<ellipse rx="4" ry="8.5" transform="matrix(-0.891899 0.452235 0.452235 0.891899 24.1172 100.39)" fill="#414DD8"/>
<ellipse cx="18.9595" cy="106.887" rx="4.26263" ry="8.52526" transform="rotate(-83.3864 18.9595 106.887)" fill="#414DD8"/>
</svg>
