<svg width="30" height="41" viewBox="0 0 30 41" fill="none" xmlns="http://www.w3.org/2000/svg">
<path d="M18.6094 30.3906C18.8672 30.6484 19.1953 30.7891 19.582 30.7891C20.3555 30.7891 20.9766 30.1797 20.9766 29.4062C20.9766 29.0195 20.8125 28.668 20.543 28.3984L12.3398 20.3828L20.543 12.3906C20.8125 12.1211 20.9766 11.7578 20.9766 11.3828C20.9766 10.6094 20.3555 10 19.582 10C19.1953 10 18.8672 10.1406 18.6094 10.3984L9.49219 19.3047C9.16406 19.6094 9.01172 19.9844 9 20.3945C9 20.8047 9.16406 21.1562 9.49219 21.4727L18.6094 30.3906Z" fill="white"/>
</svg>
