<svg width="303" height="238" viewBox="0 0 303 238" fill="none" xmlns="http://www.w3.org/2000/svg">
<circle cx="151" cy="124" r="94" fill="#D9DCFF"/>
<ellipse cx="77.4231" cy="61.7693" rx="77.4231" ry="61.7693" fill="#9EA5EB"/>
<path d="M192.479 160.793C191.463 159.007 192.11 156.735 193.915 155.753C195.696 154.785 197.924 155.444 198.892 157.224L214.475 185.887C215.683 188.107 214.826 190.886 212.578 192.042C210.198 193.265 207.283 192.154 206.32 189.657L201.334 176.729C201.03 175.941 200.667 175.177 200.249 174.443L192.479 160.793Z" fill="#C2C7F2"/>
<path d="M175.73 154.126C174.427 152.92 174.373 150.877 175.611 149.604C176.828 148.353 178.828 148.326 180.079 149.542L197.029 166.031C198.598 167.558 198.61 170.075 197.055 171.616C195.357 173.3 192.558 173.08 191.144 171.151L185.576 163.559C185.084 162.888 184.529 162.266 183.918 161.701L175.73 154.126Z" fill="#E7E8FA" stroke="#414DD8" stroke-linejoin="round"/>
<path d="M192.479 146.408C191.463 144.622 192.11 142.35 193.915 141.368C195.696 140.4 197.924 141.059 198.892 142.84L214.475 171.502C215.683 173.723 214.826 176.502 212.578 177.657C210.198 178.88 207.283 177.769 206.32 175.273L201.334 162.345C201.03 161.557 200.667 160.792 200.249 160.058L192.479 146.408Z" fill="#C2C7F2"/>
<path d="M199.131 136.041C198.48 134.092 199.553 131.989 201.512 131.373C203.448 130.763 205.511 131.838 206.12 133.773L217.493 169.892C218.259 172.327 216.867 174.915 214.413 175.618C211.851 176.351 209.212 174.729 208.709 172.112L205.359 154.69L199.131 136.041Z" fill="#C2C7F2"/>
<path d="M210.016 135.887C209.724 133.862 211.128 131.983 213.152 131.688C215.179 131.393 217.062 132.796 217.357 134.823L222.109 167.453C222.478 169.988 220.688 172.33 218.145 172.64C215.5 172.962 213.143 170.958 213.034 168.296L212.385 152.307L210.016 135.887Z" fill="#C2C7F2"/>
<rect x="180.092" y="170.198" width="6.26582" height="12.512" rx="3.13291" transform="rotate(-45.7898 180.092 170.198)" fill="#E7E8FA" stroke="#414DD8" stroke-linejoin="round"/>
<rect x="175.861" y="175.029" width="5.92239" height="12.512" rx="2.96119" transform="rotate(-45.7898 175.861 175.029)" fill="#E7E8FA" stroke="#414DD8" stroke-linejoin="round"/>
<rect x="170.784" y="180.106" width="6.46422" height="12.512" rx="3.23211" transform="rotate(-45.7898 170.784 180.106)" fill="#E7E8FA" stroke="#414DD8" stroke-linejoin="round"/>
<path d="M188.362 105.114C187.209 104.02 190.761 98.7292 192.681 96.2203L194.781 104.99C193.122 105.487 189.514 106.207 188.362 105.114Z" fill="#9EA5EB"/>
<path d="M205.615 231C207.315 169.415 225.87 140.162 234.935 133.234L250.232 128.615C292.724 129.847 303.063 197.385 302.922 231L253.5 237.5L205.615 231Z" fill="#414DD8"/>
<path d="M232.693 140.922V126.948L257.231 113.385V129.885C249.616 144.269 237.77 144.21 232.693 140.922Z" fill="#E7E8FA"/>
<path d="M287.693 72.7694C287.693 99.4065 264.773 121 236.5 121C208.227 121 192.077 94.3463 185.308 72.7694C185.308 46.1322 208.227 24.5386 236.5 24.5386C264.773 24.5386 287.693 46.1322 287.693 72.7694Z" fill="#C4C4C4"/>
<path d="M287.693 72.7694C287.693 99.4065 264.773 121 236.5 121C208.227 121 203.077 87.154 185.308 72.7694C185.308 46.1322 208.227 24.5386 236.5 24.5386C264.773 24.5386 287.693 46.1322 287.693 72.7694Z" fill="#414DD8"/>
<path d="M232.693 134.538C244.2 136.569 252.154 125.795 254.693 120.154L232.693 128.615V134.538Z" fill="#9EA5EB"/>
<path d="M270.346 93.0773C267.388 117.378 243.357 132.202 220.846 129.462C198.335 126.722 187.705 104.685 190.663 80.3848C193.621 56.0843 211.873 54.3757 234.385 57.1157C256.896 59.8558 253.278 78.5011 270.346 93.0773Z" fill="#E7E8FA"/>
<path opacity="0.5" d="M225.419 103.916C225.229 109.99 220.151 114.761 214.076 114.572C208.002 114.383 203.231 109.305 203.42 103.23C203.609 97.155 208.688 92.384 214.762 92.5734C220.837 92.7628 225.608 97.841 225.419 103.916Z" fill="#9EA5EB"/>
<path d="M197.154 111.446C199.08 112.754 203.637 113.957 206.462 108.308" stroke="#414DD8" stroke-linecap="round"/>
<path d="M212.202 164.667L212.199 164.68L212.197 164.694L211.141 171.206C210.767 173.516 208.561 175.061 206.263 174.624C203.443 174.088 202.002 170.923 203.451 168.444L205.134 165.564C205.691 164.61 206.032 163.545 206.13 162.445L206.567 157.577C206.752 155.516 208.664 154.058 210.7 154.424C212.665 154.778 213.944 156.692 213.518 158.643L212.202 164.667Z" fill="#E7E8FA" stroke="#414DD8"/>
<path d="M188.692 89.2689C190.723 81.4843 199.692 71.0766 203.923 66.8458L200.538 82.9227C205.192 81.0894 215.769 74.7997 220.846 64.3074C221.974 70.9356 227.362 84.7843 239.885 87.1535L257.654 98.5766C255.821 102.948 253.085 112.115 256.808 113.807L260.615 108.73L258.923 115.923L262.731 114.23L272.885 97.3074L251.308 54.5766L207.731 47.3843L187 61.3458C183.277 74.5458 186.577 85.4612 188.692 89.2689Z" fill="#414DD8"/>
<circle cx="245.808" cy="93.4999" r="13.1154" transform="rotate(26.8725 245.808 93.4999)" fill="#9EA5EB"/>
<path d="M228.038 199.693L236.923 187.423C245.385 189.962 261.377 196.985 257.654 204.77L242.689 225.055C240.049 228.634 236.092 231.466 231.878 230.046C220.646 226.262 205.39 210.391 198 201.385C187.846 200.708 178.82 190.385 175.577 185.308C179.977 177.862 192.359 169.513 198 166.27L203.077 168.808C203.5 169.513 205.108 171.008 208.154 171.346C211.2 171.685 214.782 182.205 216.192 187.423L228.038 199.693Z" fill="#E7E8FA"/>
<path fill-rule="evenodd" clip-rule="evenodd" d="M249.898 105.961C246.706 107.009 243.113 106.838 239.879 105.199C233.418 101.925 230.834 94.0327 234.108 87.5715C234.647 86.5076 235.312 85.5489 236.074 84.7041C239.267 83.656 242.859 83.8271 246.093 85.466C252.555 88.74 255.138 96.6321 251.864 103.093C251.325 104.157 250.661 105.116 249.898 105.961Z" fill="#E7E8FA"/>
<ellipse cx="275.037" cy="36.6833" rx="4.7794" ry="10.1562" transform="rotate(7.33411 275.037 36.6833)" fill="#414DD8"/>
<ellipse rx="5.0932" ry="10.1864" transform="matrix(-0.440984 -0.897515 -0.897515 0.440984 283.442 41.9364)" fill="#414DD8"/>
<path d="M277.366 180.464C282.25 169.607 277.661 156.831 266.984 151.563C255.746 146.018 242.151 150.911 237.023 162.345L227.641 183.268C227 184.696 227.566 186.377 228.94 187.128L245.199 196.01C248.076 197.581 250.756 199.487 253.184 201.689L260.52 208.343C262.029 209.711 264.435 209.209 265.271 207.351L277.366 180.464Z" fill="#9EA5EB"/>
<ellipse rx="2.65799" ry="3.98699" transform="matrix(-0.970553 0.240889 0.240889 0.970553 197.31 91.6642)" fill="#414DD8"/>
<path d="M151.5 173.5C151.5 175.709 142.993 177.5 132.5 177.5C122.007 177.5 113.5 175.709 113.5 173.5C113.5 171.291 122.007 169.5 132.5 169.5C142.993 169.5 151.5 171.291 151.5 173.5Z" fill="#9EA5EB"/>
<path d="M210.692 172.616C211.633 174.462 213.626 178.57 214.077 180.231" stroke="#414DD8" stroke-linecap="round"/>
<path d="M228.703 197.889L224.413 205.304" stroke="#414DD8" stroke-linecap="round"/>
<path d="M206.462 172.192C205.756 170.782 202.654 167.708 197.577 166.692" stroke="#414DD8" stroke-linecap="round"/>
<path d="M104.058 69.6321C104.546 68.7204 104.19 67.586 103.269 67.1161C102.361 66.6526 101.249 67.0133 100.785 67.9217L93.3247 82.5449C92.7468 83.6777 93.2144 85.0643 94.3604 85.6157C95.5737 86.1995 97.0254 85.6024 97.4769 84.3339L99.8145 77.7653C99.957 77.3648 100.129 76.9756 100.33 76.6009L104.058 69.6321Z" fill="#DCDDEE"/>
<path d="M104.248 76.8684C104.736 75.9567 104.38 74.8223 103.459 74.3524C102.551 73.8889 101.439 74.2496 100.975 75.1581L93.5146 89.7812C92.9366 90.9141 93.4042 92.3006 94.5502 92.8521C95.7635 93.4359 97.2152 92.8388 97.6667 91.5703L100.004 85.0016C100.147 84.6012 100.319 84.212 100.52 83.8372L104.248 76.8684Z" fill="#DCDDEE"/>
<path d="M100.576 64.5056C100.877 63.5171 100.31 62.4734 99.3163 62.1889C98.3347 61.9079 97.3112 62.4758 97.0302 63.4574L91.7858 81.7757C91.4323 83.0106 92.1666 84.294 93.4104 84.6149C94.7088 84.9499 96.015 84.0992 96.2336 82.7762L97.6886 73.9687L100.576 64.5056Z" fill="#DCDDEE"/>
<path d="M95.0989 64.5718C95.2191 63.5493 94.4885 62.6226 93.4661 62.5009C92.4427 62.3792 91.5144 63.1101 91.3926 64.1334L89.4324 80.6092C89.2801 81.8894 90.2115 83.044 91.4949 83.1662C92.8297 83.2932 93.9888 82.2542 94.0081 80.9135L94.1241 72.8627L95.0989 64.5718Z" fill="#DCDDEE"/>
<rect x="-0.353526" y="0.00439143" width="3.15606" height="6.29905" rx="1.57803" transform="matrix(-0.715835 -0.698269 -0.698269 0.715835 110.355 81.1865)" fill="#E7E8FA" stroke="#414DD8" stroke-width="0.5"/>
<rect x="-0.353526" y="0.00439143" width="2.98325" height="6.29905" rx="1.49163" transform="matrix(-0.715835 -0.698269 -0.698269 0.715835 112.548 83.5605)" fill="#E7E8FA" stroke="#414DD8" stroke-width="0.5"/>
<rect x="-0.353526" y="0.00439143" width="3.25589" height="6.29905" rx="1.62795" transform="matrix(-0.715835 -0.698269 -0.698269 0.715835 115.168 86.0469)" fill="#E7E8FA" stroke="#414DD8" stroke-width="0.5"/>
<path d="M105.912 48.3664C106.356 47.7016 104.024 45.5002 102.802 44.4826L102.748 49.0199C103.617 49.079 105.468 49.0311 105.912 48.3664Z" fill="#9EA5EB"/>
<path d="M98.5662 112.356C96.8993 81.4008 87.1803 66.9309 82.5292 63.5654L74.7736 61.4437C53.4159 62.6235 49.1054 96.7324 49.6198 113.639L98.5662 112.356Z" fill="#414DD8"/>
<path d="M83.7591 67.4033L83.5748 60.3742L71.0528 53.8753L71.2704 62.175C75.2907 69.3103 81.2487 69.1241 83.7591 67.4033Z" fill="#E7E8FA"/>
<path d="M55.194 33.8465C55.5452 47.2453 67.3588 57.805 81.5803 57.4323C95.8019 57.0595 103.574 43.4393 106.695 32.4966C106.344 19.0977 94.5301 8.53803 80.3085 8.91079C66.087 9.28356 54.8428 20.4477 55.194 33.8465Z" fill="#C4C4C4"/>
<path d="M55.194 33.8465C55.5452 47.2453 67.3588 57.805 81.5803 57.4323C95.8019 57.0595 97.9464 39.9665 106.695 32.4966C106.344 19.0977 94.5301 8.53803 80.3085 8.91079C66.087 9.28356 54.8428 20.4477 55.194 33.8465Z" fill="#414DD8"/>
<path d="M83.6749 64.1917C77.9131 65.3649 73.7702 60.0502 72.4189 57.2461L83.5968 61.2123L83.6749 64.1917Z" fill="#9EA5EB"/>
<path d="M64.1872 43.833C65.9954 56.0174 78.2788 63.1574 89.5661 61.4823C100.853 59.8072 105.91 48.5824 104.102 36.3979C102.293 24.2134 93.0895 23.5946 81.8022 25.2697C70.5149 26.9447 72.5803 36.2759 64.1872 43.833Z" fill="#E7E8FA"/>
<circle opacity="0.5" r="5.5374" transform="matrix(-0.998354 0.0573444 0.0573444 0.998354 92.8669 47.9381)" fill="#9EA5EB"/>
<path d="M101.272 51.367C100.575 52.308 98.6102 53.6368 96.33 51.4232" stroke="#414DD8" stroke-linecap="round"/>
<path d="M94.3765 79.0775L94.3768 79.0774L94.3794 79.0908L94.9963 82.3527C95.2152 83.5102 96.346 84.2591 97.4972 84.0089C98.9097 83.7019 99.5931 82.0894 98.8313 80.8609L97.9467 79.4342C97.6538 78.962 97.4687 78.431 97.4046 77.879L97.1209 75.4362C97.0006 74.4012 96.0188 73.6921 94.9985 73.9033C94.0136 74.1072 93.3949 75.0882 93.6352 76.0649L94.3765 79.0775Z" fill="#E7E8FA" stroke="#414DD8" stroke-width="0.5"/>
<path d="M112.587 73.2947C113.227 72.6703 113.227 71.6408 112.587 71.0162C111.958 70.4025 110.95 70.415 110.336 71.0441L102.028 79.5618C101.258 80.351 101.285 81.6181 102.088 82.3735C102.966 83.1988 104.371 83.0511 105.058 82.0615L107.758 78.1694C107.997 77.8254 108.268 77.5051 108.568 77.2128L112.587 73.2947Z" fill="#E7E8FA" stroke="#414DD8" stroke-width="0.5"/>
<path d="M105.21 40.8411C104.086 36.9521 99.4372 31.8352 97.2533 29.7628L99.1677 37.8051C96.8026 36.9443 91.3993 33.9199 88.7072 28.7091C88.2271 32.058 85.6999 39.0951 79.4318 40.452L70.6443 46.4323C71.6241 48.6072 73.1212 53.182 71.2707 54.0824L69.2885 51.5788L70.2346 55.1743L68.2969 54.3733L62.9663 45.9946L73.2564 24.216L95.0813 20.0236L105.693 26.7731C107.74 33.3638 106.224 38.8979 105.21 40.8411Z" fill="#414DD8"/>
<path d="M86.8744 96.9043L82.2436 90.8499C78.0208 92.2383 70.069 95.9819 72.0444 99.8486L77.7443 107.166C80.4774 110.674 84.6215 113.061 88.3706 110.669C93.3977 107.46 99.0272 101.191 102.006 97.3596C107.105 96.8852 111.509 91.5735 113.074 88.977C110.762 85.2895 104.424 81.2532 101.544 79.696L99.0232 81.0398C98.8197 81.4001 98.0307 82.1733 96.5029 82.3837C94.9751 82.5941 93.312 87.9333 92.6714 90.5766L86.8744 96.9043Z" fill="#E7E8FA"/>
<ellipse rx="2.40493" ry="5.11048" transform="matrix(-0.988133 0.153599 0.153599 0.988133 60.8861 15.4192)" fill="#414DD8"/>
<ellipse cx="56.7275" cy="18.1723" rx="2.56283" ry="5.12566" transform="rotate(-65.3348 56.7275 18.1723)" fill="#414DD8"/>
<path d="M61.8083 87.8828C59.2084 82.4856 61.3484 75.9987 66.6495 73.2081C72.2292 70.2709 79.1323 72.5526 81.8623 78.2366L86.8206 88.56C87.1827 89.3138 86.9041 90.2193 86.181 90.6393L80.3129 94.0473C77.4788 95.6934 74.8495 97.6693 72.4803 99.934L71.0158 101.334C70.0938 102.215 68.5802 101.94 68.0267 100.791L61.8083 87.8828Z" fill="#9EA5EB"/>
<ellipse cx="100.787" cy="42.9928" rx="1.33746" ry="2.0062" transform="rotate(-0.112597 100.787 42.9928)" fill="#414DD8"/>
<path d="M95.2432 83.0552C94.7946 83.9962 93.8462 86.0887 93.6411 86.9304" stroke="#414DD8" stroke-width="0.5" stroke-linecap="round"/>
<path d="M86.5168 96.0059L88.7728 99.6791" stroke="#414DD8" stroke-width="0.5" stroke-linecap="round"/>
<path d="M97.3651 82.7868C97.7012 82.0681 99.4208 80.1168 101.961 79.5391" stroke="#414DD8" stroke-width="0.5" stroke-linecap="round"/>
<path d="M52.8588 39.3196C54.1207 37.2108 56.5609 32.8525 56.2803 30.4624L72.3459 45.6932C70.0495 47.9976 74.8895 61.0176 77.4685 67.134C77.9598 67.2467 77.9138 67.4239 77.6571 67.5784C77.5958 67.4348 77.5329 67.2865 77.4685 67.134C76.619 66.9391 74.1627 66.937 68.4104 67.5784C59.3317 68.5907 54.26 62.6577 52.859 59.5647L54.1202 63.7825C38.5696 59.143 51.5425 41.5193 52.8588 39.3196Z" fill="#414DD8"/>
<circle r="6.59949" transform="matrix(-0.879865 0.475224 0.475224 0.879865 76.5359 43.7222)" fill="#9EA5EB"/>
<path fill-rule="evenodd" clip-rule="evenodd" d="M74.6408 50.0434C76.2608 50.529 78.0662 50.3956 79.6719 49.5284C82.8788 47.7963 84.0744 43.7925 82.3423 40.5855C82.0573 40.0579 81.7108 39.5847 81.3165 39.17C79.6965 38.6845 77.8911 38.8178 76.2854 39.685C73.0785 41.4171 71.8829 45.421 73.615 48.6279C73.9 49.1555 74.2465 49.6287 74.6408 50.0434Z" fill="#E7E8FA"/>
<path d="M112.961 88.8462C111.269 91.5257 106.7 96.9693 101.961 97.3077L97.3076 102.808" stroke="#414DD8" stroke-width="0.5" stroke-linecap="round" stroke-linejoin="round"/>
<path d="M104.128 136.75C87.4674 139.698 84.1262 128.391 84.6739 121.81L98.4889 118.232C95.8107 127.34 99.8624 132.066 104.222 134.187C105.205 134.665 105.205 136.559 104.128 136.75Z" fill="#9EA5EB"/>
<path d="M175.577 184.885C178.632 190.44 187.322 201.383 197.928 201.392C198.239 201.393 198.537 201.524 198.732 201.765C201.401 205.07 206.755 212.157 207.731 212.808" stroke="#414DD8" stroke-linecap="round" stroke-linejoin="round"/>
<rect x="109" y="125.237" width="32.5966" height="50.7692" rx="8" transform="rotate(-11.0317 109 125.237)" fill="#414DD8"/>
<rect x="112.385" y="127.354" width="26.6515" height="45.7445" rx="8" transform="rotate(-11.0317 112.385 127.354)" fill="#9EA5EB"/>
<rect x="118.308" y="125.776" width="13.864" height="2.55501" rx="1.27751" transform="rotate(-11.0317 118.308 125.776)" fill="#414DD8"/>
<circle cx="129.731" cy="146.5" r="5.5" fill="#E7E8FA"/>
<path d="M124.086 160.537C123.11 155.677 126.259 150.947 131.119 149.972C135.978 148.997 140.708 152.146 141.683 157.005L143.414 165.631C143.607 166.593 142.984 167.53 142.021 167.723L127.909 170.555C126.946 170.748 126.01 170.125 125.817 169.162L124.086 160.537Z" fill="#E7E8FA"/>
</svg>
